<svg xmlns="http://www.w3.org/2000/svg" width="1080" height="1620" viewBox="0 0 1080 1620">
<defs><style>
.bg{fill:#F2EEDF}.card{fill:rgba(255,255,255,0.70);stroke:rgba(255,255,255,.55);stroke-width:2}.ink{fill:#2A241B}.soft{fill:#5C5345}.grey{fill:#8A8275}.red{fill:#C0532E}.line{stroke:rgba(42,36,27,.18);stroke-width:1}.title{font-family:'STKaiti','Kaiti SC','Songti SC',serif;font-size:82px;font-weight:700}.huge{font-family:'STKaiti','Kaiti SC','Songti SC',serif;font-size:94px;font-weight:700}.body{font-family:'Songti SC','STSong',serif;font-size:42px}.body2{font-family:'Songti SC','STSong',serif;font-size:38px}.small{font-family:'Songti SC','STSong',serif;font-size:32px}.foot{font-family:'Songti SC','STSong',serif;font-size:28px}.mono{font-family:-apple-system,BlinkMacSystemFont,'PingFang SC',sans-serif;font-size:36px;font-weight:700}
</style><filter id="shadow" x="-20%" y="-20%" width="140%" height="140%"><feDropShadow dx="0" dy="20" stdDeviation="24" flood-color="#2A241B" flood-opacity=".06"/></filter></defs>
<rect width="1080" height="1620" class="bg"/>
<rect x="54" y="54" width="972" height="1512" rx="54" class="card" filter="url(#shadow)"/>
<text x="540" y="220" text-anchor="middle" class="title"><tspan x="540" dy="0">不用装环境</tspan><tspan x="540" dy="1.25em">拖一下就能跑</tspan></text><rect x="478" y="418" width="124" height="8" rx="4" class="red"/><circle cx="207" cy="594" r="39" fill="rgba(192,83,46,.13)" stroke="#C0532E" stroke-width="3"/><text x="207" y="609" text-anchor="middle" class="body red"><tspan x="207" dy="0">1</tspan></text><text x="290" y="609" text-anchor="start" class="body ink"><tspan x="290" dy="0">下载 dmg</tspan></text><line x1="207" y1="647" x2="207" y2="681" stroke="rgba(192,83,46,.45)" stroke-width="4"/><circle cx="207" cy="739" r="39" fill="rgba(192,83,46,.13)" stroke="#C0532E" stroke-width="3"/><text x="207" y="754" text-anchor="middle" class="body red"><tspan x="207" dy="0">2</tspan></text><text x="290" y="754" text-anchor="start" class="body ink"><tspan x="290" dy="0">拖进应用程序</tspan></text><line x1="207" y1="792" x2="207" y2="826" stroke="rgba(192,83,46,.45)" stroke-width="4"/><circle cx="207" cy="884" r="39" fill="rgba(192,83,46,.13)" stroke="#C0532E" stroke-width="3"/><text x="207" y="899" text-anchor="middle" class="body red"><tspan x="207" dy="0">3</tspan></text><text x="290" y="899" text-anchor="start" class="body ink"><tspan x="290" dy="0">右键打开一次</tspan></text><line x1="207" y1="937" x2="207" y2="971" stroke="rgba(192,83,46,.45)" stroke-width="4"/><circle cx="207" cy="1029" r="39" fill="rgba(192,83,46,.13)" stroke="#C0532E" stroke-width="3"/><text x="207" y="1044" text-anchor="middle" class="body red"><tspan x="207" dy="0">4</tspan></text><text x="290" y="1044" text-anchor="start" class="body ink"><tspan x="290" dy="0">菜单栏看状态</tspan></text><text x="540" y="1220" text-anchor="middle" class="body soft"><tspan x="540" dy="0">不用 Xcode</tspan><tspan x="540" dy="1.25em">不用命令行</tspan><tspan x="540" dy="1.25em">不用额外依赖</tspan></text>
<line x1="118" y1="1478" x2="962" y2="1478" class="line"/>
<text x="118" y="1534" text-anchor="start" class="foot red"><tspan x="118" dy="0">安装很轻</tspan></text>
<text x="962" y="1534" text-anchor="end" class="foot grey"><tspan x="962" dy="0">@见林</tspan></text>
</svg>